# xmcd CD database file
#
# Track frame offsets:
#	150
#	9905
#	29232
#	44733
#	60745
#	80685
#	93951
#	112910
#	136406
#	154438
#	166384
#	180676
#	201037
#	217610
#	235771
#	249947
#	267101
#
# Disc length: 3696 seconds
#
# Revision: 0
# Processed by: cddbd v1.5.2PL0 Copyright (c) Steve Scherf et al.
# Submitted via: CDex 1.51
#
DISCID=e20e6e11
DTITLE=Lee Kernaghan - Spirit of the Bush
DYEAR=2007
DGENRE=Country
TTITLE0=Sassafras Gap
TTITLE1=I was only nineteen (A walk in the light green)
TTITLE2=Three Rivers Hotel
TTITLE3=Spirit of the Bush
TTITLE4=Diamantina Drover
TTITLE5=Bare Essentials
TTITLE6=The Way it is
TTITLE7=Spirit of the High Country
TTITLE8=Southern Son
TTITLE9=Shelter
TTITLE10=When Country Comes
TTITLE11=A Bushman can't survive
TTITLE12=Mate
TTITLE13=Tenterfield Saddler
TTITLE14=Cunnamulla Feller
TTITLE15=Hat Town
TTITLE16=Spirit of the Bush Reprise
EXTD=YEAR: 2007
EXTT0=
EXTT1=
EXTT2=
EXTT3=
EXTT4=
EXTT5=
EXTT6=
EXTT7=
EXTT8=
EXTT9=
EXTT10=
EXTT11=
EXTT12=
EXTT13=
EXTT14=
EXTT15=
EXTT16=
PLAYORDER=
